<?xml version="1.0" encoding="UTF-8" standalone="no"?>
<svg width="200px" height="200px" viewBox="0 0 200 200" version="1.1" xmlns="http://www.w3.org/2000/svg" xmlns:xlink="http://www.w3.org/1999/xlink">
    <!-- Generator: Sketch 3.6.1 (26313) - http://www.bohemiancoding.com/sketch -->
    <title>github</title>
    <desc>Created with Sketch.</desc>
    <defs></defs>
    <g id="New-Site" stroke="none" stroke-width="1" fill="none" fill-rule="evenodd">
        <g id="github">
            <rect id="Rectangle-8" fill="#FFFFFF" x="21" y="22" width="158" height="156"></rect>
            <rect id="Rectangle-8-Copy" fill="#FFFFFF" x="52" y="43" width="96" height="156"></rect>
            <path d="M51.7890625,158.78125 C52.3046875,158.265625 52.046875,157.105469 51.2734375,156.332031 C50.3710938,155.429688 49.2109375,155.300781 48.6953125,155.945312 C48.0507812,156.460938 48.3085938,157.621094 49.2109375,158.394531 C50.1132812,159.296875 51.2734375,159.425781 51.7890625,158.78125 L51.7890625,158.78125 Z M46.375,150.917969 C45.859375,150.015625 44.828125,149.628906 44.1835938,150.144531 C43.5390625,150.53125 43.5390625,151.5625 44.1835938,152.464844 C44.828125,153.367188 45.859375,153.753906 46.375,153.367188 C47.0195312,152.851562 47.0195312,151.820312 46.375,150.917969 L46.375,150.917969 Z M38.5117188,143.183594 C38.7695312,142.667969 38.3828125,142.023438 37.609375,141.636719 C36.8359375,141.378906 36.1914062,141.507812 35.9335938,141.894531 C35.6757812,142.410156 36.0625,143.054688 36.8359375,143.441406 C37.4804688,143.828125 38.2539062,143.570312 38.5117188,143.183594 L38.5117188,143.183594 Z M42.5078125,147.566406 C43.0234375,147.179688 42.8945312,146.277344 42.25,145.503906 C41.6054688,144.859375 40.703125,144.601562 40.1875,145.117188 C39.671875,145.503906 39.8007812,146.40625 40.4453125,147.179688 C41.0898438,147.824219 41.9921875,148.082031 42.5078125,147.566406 L42.5078125,147.566406 Z M59.1367187,162.003906 C59.3945312,161.230469 58.6210937,160.328125 57.4609375,159.941406 C56.4296875,159.683594 55.2695312,160.070312 55.0117187,160.84375 C54.7539062,161.617188 55.5273437,162.519531 56.6875,162.777344 C57.71875,163.164062 58.8789062,162.777344 59.1367187,162.003906 L59.1367187,162.003906 Z M67.2578125,162.648438 C67.2578125,161.746094 66.2265625,161.101562 65.0664062,161.230469 C63.90625,161.230469 63.0039062,161.875 63.0039062,162.648438 C63.0039062,163.550781 63.90625,164.195312 65.1953125,164.066406 C66.3554688,164.066406 67.2578125,163.421875 67.2578125,162.648438 L67.2578125,162.648438 Z M74.734375,161.359375 C74.6054688,160.585938 73.5742188,160.070312 72.4140625,160.199219 C71.2539062,160.457031 70.4804688,161.230469 70.609375,162.132812 C70.7382812,162.90625 71.7695312,163.421875 72.9296875,163.164062 C74.0898438,162.90625 74.8632812,162.132812 74.734375,161.359375 L74.734375,161.359375 Z M199,38.125 C199,17.6289062 182.371094,1 161.875,1 L38.125,1 C17.6289062,1 1,17.6289062 1,38.125 L1,161.875 C1,182.371094 17.6289062,199 38.125,199 L67,199 C71.125,199 75.5078125,199 75.5078125,192.8125 C75.5078125,190.492188 75.3789062,179.019531 75.3789062,170.769531 C75.3789062,170.769531 47.7929688,176.699219 41.9921875,159.039062 C41.9921875,159.039062 37.4804688,147.566406 31.0351563,144.601562 C31.0351563,144.601562 22.0117188,138.414062 31.6796875,138.542969 C31.6796875,138.542969 41.4765625,139.316406 46.890625,148.726562 C55.5273438,163.9375 69.9648438,159.554688 75.6367188,156.976562 C76.5390625,150.53125 79.1171875,146.277344 81.953125,143.699219 C59.9101563,141.25 36.8359375,132.742188 36.8359375,94.84375 C36.8359375,84.015625 40.703125,75.1210938 47.0195312,68.2890625 C45.9882812,65.7109375 42.6367188,55.65625 47.921875,41.9921875 C56.3007812,39.4140625 75.25,52.1757813 75.25,52.1757813 C83.1132812,49.984375 91.6210938,48.8242188 100,48.8242188 C108.378906,48.8242188 116.886719,49.984375 124.75,52.1757813 C124.75,52.1757813 143.699219,39.4140625 151.949219,41.9921875 C157.363281,55.65625 154.011719,65.7109375 152.980469,68.2890625 C159.296875,75.1210938 163.164062,84.015625 163.164062,94.84375 C163.164062,132.871094 139.960938,141.25 117.917969,143.699219 C121.527344,146.792969 124.621094,152.722656 124.621094,162.003906 L124.621094,192.8125 C124.621094,199 128.875,199 133,199 L161.875,199 C182.371094,199 199,182.371094 199,161.875 L199,38.125 Z" id="" fill="#333333"></path>
        </g>
    </g>
</svg>